<?xml version="1.0" encoding="utf-8"?>
<!-- Generator: Adobe Illustrator 21.1.0, SVG Export Plug-In . SVG Version: 6.00 Build 0)  -->
<svg version="1.1" id="McAfee_Logo" xmlns="http://www.w3.org/2000/svg" xmlns:xlink="http://www.w3.org/1999/xlink" x="0px"
	 y="0px" viewBox="0 0 427.5 119" enable-background="new 0 0 427.5 119" xml:space="preserve">
<g>
	<g>
		<g>
			<path fill="#C01818" d="M213.5,54.3l-11.2-6.6l-0.8,1.3c-2.5,4-6,6-10.3,6c-7.4,0-12.9-5.6-12.9-12.9c0-7.4,5.6-12.9,12.9-12.9
				c4.4,0,7.6,1.9,10.3,6l0.8,1.3l11.2-6.6l-1-1.4c-5.4-7.8-12.3-11.5-21.4-11.5c-17.1,0-26.3,13-26.3,25.2
				c0,12.2,9.2,25.2,26.3,25.2c8.7,0,16.9-4.4,21.4-11.6L213.5,54.3z"/>
			<path fill="#C01818" d="M212.9,67.2l15.4,0l4.6-11.4l23.1,0l4.6,11.4l15.5,0L248.5,0.5l-13.8,0l3.7,8.9L212.9,67.2 M244.6,26.8
				l6.2,15.7l-12.6,0L244.6,26.8z"/>
			<path fill="#C01818" d="M282.5,67.3l13.5,0l0-30l8.8,0l0-12.6l-8.8,0l0-5.9c0-2.6,1.7-5.3,4.9-5.3c1.7,0,2.8,0.3,3.8,0.7l1.5,0.6
				l5.6-12.3L310.3,2c-2.5-1-6-1.4-8.5-1.4c-6.1,0-11.2,2-14.6,5.8c-3,3.3-4.7,7.9-4.7,13l0,5.4l-6,0l0,12.6l6,0L282.5,67.3z"/>
			<polygon fill="#C01818" points="101.1,0.1 101.1,67.1 115.8,67.2 115.8,28.8 130.1,39.4 144.3,28.8 144.3,67.2 159,67.2 159,0.1 
				130.1,21.9 			"/>
			<path fill="#C01818" d="M335.3,17c-17,0-26.2,12.9-26.2,25.1c0,12.2,9.2,25.1,26.2,25.1h0h0c7.8-0.1,15.1-3.6,20.8-10.1l-11-6
				c-2.8,2.9-6.3,4.4-10.1,4.4c-5.6,0-10.5-3.7-11.8-8.6l36.8,0l0-3.3C360.1,25.3,345.6,17.1,335.3,17z M323.5,36
				c1.8-4.6,5.6-7.2,10.5-7.2c5,0,8.9,2.6,10.9,7.3L323.5,36z"/>
			<path fill="#C01818" d="M390.6,17.1c-17,0-26.2,12.9-26.2,25.1c0,12.2,9.2,25.1,26.2,25.1h0h0c7.8-0.1,15.1-3.6,20.8-10.1l-11-6
				c-2.8,2.9-6.3,4.4-10.1,4.4c-5.6,0-10.5-3.7-11.8-8.6l36.8,0l0-3.3C415.4,25.4,400.9,17.1,390.6,17.1z M378.8,36
				c1.8-4.6,5.6-7.3,10.5-7.2c5,0,8.9,2.6,10.9,7.3L378.8,36z"/>
			<g>
				<path fill="#C01818" d="M413.6,14.8h5.7v1.1h-2.3v6h-1.2v-6h-2.2V14.8z"/>
				<path fill="#C01818" d="M420.2,14.8h1.7l2,5.5h0l1.9-5.5h1.7v7.1h-1.2v-5.5h0l-2,5.5h-1l-2-5.5h0v5.5h-1.2V14.8z"/>
			</g>
			<g>
				<polygon fill="#C01818" points="14.9,57.3 14.9,23.3 36.3,33.2 36.3,16.8 0,0 0,66.8 36.3,83.6 36.3,67.2 				"/>
				<polygon fill="#75160D" points="57.8,57.3 57.8,23.3 36.3,33.2 36.3,16.8 72.7,0 72.7,66.8 36.3,83.6 36.3,67.2 				"/>
			</g>
		</g>
	</g>
	<g>
		<path fill="#C01818" d="M113.2,110.1h-4.3V87.4h-7.8v-3.7H121v3.7h-7.8V110.1z"/>
		<path fill="#C01818" d="M139,100.1c0,3.3-0.8,5.8-2.5,7.6c-1.7,1.8-4,2.7-7,2.7c-1.9,0-3.5-0.4-5-1.3c-1.4-0.8-2.5-2.1-3.3-3.6
			c-0.8-1.6-1.2-3.4-1.2-5.5c0-3.2,0.8-5.8,2.5-7.6c1.7-1.8,4-2.7,7-2.7c2.9,0,5.2,0.9,6.9,2.8C138.2,94.4,139,96.9,139,100.1z
			 M124.5,100.1c0,4.6,1.7,6.9,5.1,6.9c3.4,0,5.1-2.3,5.1-6.9c0-4.6-1.7-6.8-5.1-6.8c-1.8,0-3.1,0.6-3.9,1.8
			C124.9,96.2,124.5,97.9,124.5,100.1z"/>
		<path fill="#C01818" d="M160.5,90.1v2.3l-3.4,0.6c0.3,0.4,0.6,0.9,0.8,1.6c0.2,0.6,0.3,1.3,0.3,2c0,2.1-0.7,3.7-2.1,4.9
			c-1.4,1.2-3.4,1.8-5.9,1.8c-0.6,0-1.2,0-1.7-0.1c-0.9,0.6-1.4,1.2-1.4,2c0,0.5,0.2,0.8,0.6,1c0.4,0.2,1.2,0.3,2.4,0.3h3.5
			c2.2,0,3.9,0.5,5,1.4c1.1,0.9,1.7,2.3,1.7,4.1c0,2.3-0.9,4-2.8,5.2c-1.9,1.2-4.6,1.8-8.1,1.8c-2.7,0-4.8-0.5-6.2-1.4
			c-1.4-1-2.1-2.3-2.1-4.1c0-1.2,0.4-2.3,1.2-3.1c0.8-0.8,1.9-1.4,3.3-1.7c-0.6-0.2-1-0.6-1.4-1.2c-0.4-0.5-0.6-1.1-0.6-1.7
			c0-0.7,0.2-1.4,0.6-1.9c0.4-0.5,1-1,1.9-1.5c-1-0.4-1.9-1.2-2.5-2.2c-0.6-1-1-2.2-1-3.5c0-2.2,0.7-3.8,2.1-5
			c1.4-1.2,3.3-1.8,5.8-1.8c0.6,0,1.2,0,1.8,0.1c0.6,0.1,1.1,0.2,1.4,0.2H160.5z M144.8,113.2c0,0.9,0.4,1.6,1.2,2.1
			c0.8,0.5,2,0.7,3.5,0.7c2.3,0,4-0.3,5.2-1c1.1-0.7,1.7-1.5,1.7-2.6c0-0.9-0.3-1.5-0.9-1.9c-0.6-0.4-1.8-0.6-3.5-0.6h-3.2
			c-1.2,0-2.2,0.3-2.9,0.9C145.1,111.5,144.8,112.2,144.8,113.2z M146.6,96.6c0,1.3,0.3,2.2,1,2.9c0.6,0.7,1.6,1,2.8,1
			c2.5,0,3.7-1.3,3.7-3.9c0-1.3-0.3-2.3-0.9-3c-0.6-0.7-1.5-1.1-2.8-1.1c-1.2,0-2.2,0.3-2.8,1C146.9,94.2,146.6,95.3,146.6,96.6z"/>
		<path fill="#C01818" d="M172.2,110.5c-3.1,0-5.5-0.9-7.3-2.7c-1.8-1.8-2.6-4.3-2.6-7.5c0-3.3,0.8-5.8,2.4-7.7
			c1.6-1.9,3.9-2.8,6.7-2.8c2.6,0,4.7,0.8,6.3,2.4c1.5,1.6,2.3,3.8,2.3,6.6v2.3h-13.3c0.1,1.9,0.6,3.4,1.6,4.5c1,1,2.4,1.6,4.2,1.6
			c1.2,0,2.3-0.1,3.3-0.3c1-0.2,2.1-0.6,3.3-1.1v3.5c-1,0.5-2.1,0.8-3.1,1C174.8,110.4,173.6,110.5,172.2,110.5z M171.4,93
			c-1.3,0-2.4,0.4-3.2,1.3c-0.8,0.9-1.3,2.1-1.5,3.7h9.1c0-1.7-0.4-2.9-1.2-3.7C173.8,93.4,172.8,93,171.4,93z"/>
		<path fill="#C01818" d="M192.1,107c1,0,2.1-0.2,3.1-0.5v3.2c-0.5,0.2-1.1,0.4-1.8,0.5c-0.7,0.1-1.5,0.2-2.3,0.2c-4,0-6-2.1-6-6.4
			V93.4h-2.7v-1.9l2.9-1.6l1.4-4.2h2.6v4.4h5.7v3.2h-5.7V104c0,1,0.3,1.8,0.8,2.3C190.6,106.8,191.3,107,192.1,107z"/>
		<path fill="#C01818" d="M216.3,110.1h-4.3V97.8c0-1.5-0.3-2.7-0.9-3.5c-0.6-0.8-1.6-1.1-3-1.1c-1.8,0-3.1,0.5-3.9,1.6
			c-0.8,1.1-1.3,2.9-1.3,5.4v9.9h-4.2V82h4.2v7.1c0,1.1-0.1,2.4-0.2,3.7h0.3c0.6-1,1.4-1.7,2.4-2.2c1-0.5,2.2-0.8,3.6-0.8
			c4.8,0,7.3,2.4,7.3,7.3V110.1z"/>
		<path fill="#C01818" d="M230.8,110.5c-3.1,0-5.5-0.9-7.3-2.7c-1.8-1.8-2.6-4.3-2.6-7.5c0-3.3,0.8-5.8,2.4-7.7
			c1.6-1.9,3.9-2.8,6.7-2.8c2.6,0,4.7,0.8,6.3,2.4c1.5,1.6,2.3,3.8,2.3,6.6v2.3h-13.3c0.1,1.9,0.6,3.4,1.6,4.5c1,1,2.4,1.6,4.2,1.6
			c1.2,0,2.3-0.1,3.3-0.3s2.1-0.6,3.3-1.1v3.5c-1,0.5-2.1,0.8-3.1,1C233.4,110.4,232.2,110.5,230.8,110.5z M230,93
			c-1.3,0-2.4,0.4-3.2,1.3c-0.8,0.9-1.3,2.1-1.5,3.7h9.1c0-1.7-0.4-2.9-1.2-3.7C232.5,93.4,231.4,93,230,93z"/>
		<path fill="#C01818" d="M253.3,89.8c0.9,0,1.6,0.1,2.1,0.2l-0.4,4c-0.6-0.1-1.2-0.2-1.9-0.2c-1.7,0-3.1,0.6-4.1,1.7
			c-1.1,1.1-1.6,2.5-1.6,4.3v10.4h-4.2v-20h3.3l0.6,3.5h0.2c0.7-1.2,1.5-2.1,2.6-2.8C250.9,90.1,252,89.8,253.3,89.8z"/>
		<path fill="#C01818" d="M268.6,84.8c0-0.8,0.2-1.3,0.6-1.8c0.4-0.4,1-0.6,1.8-0.6c0.7,0,1.3,0.2,1.7,0.6c0.4,0.4,0.6,1,0.6,1.8
			c0,0.7-0.2,1.3-0.6,1.7c-0.4,0.4-1,0.6-1.7,0.6c-0.8,0-1.4-0.2-1.8-0.6C268.8,86.1,268.6,85.6,268.6,84.8z M273.1,110.1h-4.2v-20
			h4.2V110.1z"/>
		<path fill="#C01818" d="M292.3,104.4c0,2-0.7,3.4-2.1,4.5c-1.4,1-3.5,1.6-6.1,1.6c-2.7,0-4.8-0.4-6.4-1.2v-3.7
			c2.3,1.1,4.5,1.6,6.6,1.6c2.6,0,3.9-0.8,3.9-2.4c0-0.5-0.1-0.9-0.4-1.3c-0.3-0.3-0.8-0.7-1.4-1c-0.7-0.4-1.6-0.8-2.8-1.2
			c-2.3-0.9-3.9-1.8-4.7-2.7c-0.8-0.9-1.2-2-1.2-3.5c0-1.7,0.7-3,2.1-4c1.4-0.9,3.3-1.4,5.6-1.4c2.3,0,4.6,0.5,6.7,1.4l-1.4,3.2
			c-2.2-0.9-4-1.3-5.4-1.3c-2.2,0-3.4,0.6-3.4,1.9c0,0.6,0.3,1.2,0.9,1.6s1.9,1,3.8,1.8c1.7,0.6,2.8,1.2,3.6,1.8
			c0.7,0.5,1.3,1.1,1.7,1.8S292.3,103.5,292.3,104.4z"/>
		<path fill="#C01818" d="M316.8,110.5c-2.5,0-4.5-0.9-5.9-2.7h-0.3c0.2,1.7,0.3,2.7,0.3,3.1v8.2h-4.2V90.1h3.4
			c0.1,0.4,0.3,1.3,0.6,2.7h0.2c1.3-2,3.3-3,6-3c2.5,0,4.4,0.9,5.8,2.7c1.4,1.8,2.1,4.3,2.1,7.6c0,3.3-0.7,5.8-2.1,7.6
			C321.2,109.6,319.3,110.5,316.8,110.5z M315.7,93.2c-1.7,0-2.9,0.5-3.7,1.5c-0.8,1-1.2,2.6-1.2,4.7v0.6c0,2.4,0.4,4.2,1.2,5.3
			c0.8,1.1,2,1.6,3.8,1.6c1.5,0,2.6-0.6,3.4-1.8s1.2-2.9,1.2-5.1c0-2.2-0.4-3.9-1.2-5.1S317.3,93.2,315.7,93.2z"/>
		<path fill="#C01818" d="M347.3,100.1c0,3.3-0.8,5.8-2.5,7.6s-4,2.7-7,2.7c-1.9,0-3.5-0.4-5-1.3c-1.4-0.8-2.5-2.1-3.3-3.6
			c-0.8-1.6-1.2-3.4-1.2-5.5c0-3.2,0.8-5.8,2.5-7.6c1.7-1.8,4-2.7,7-2.7c2.9,0,5.2,0.9,6.9,2.8C346.4,94.4,347.3,96.9,347.3,100.1z
			 M332.7,100.1c0,4.6,1.7,6.9,5.1,6.9c3.4,0,5.1-2.3,5.1-6.9c0-4.6-1.7-6.8-5.1-6.8c-1.8,0-3.1,0.6-3.9,1.8S332.7,97.9,332.7,100.1
			z"/>
		<path fill="#C01818" d="M368.2,110.1l-2.6-9.3c-0.3-1-0.9-3.3-1.7-6.9h-0.2c-0.7,3.3-1.3,5.6-1.7,6.9l-2.7,9.3h-4.7l-5.6-20h4.3
			l2.5,9.8c0.6,2.4,1,4.5,1.2,6.3h0.1c0.1-0.9,0.3-1.9,0.6-3c0.2-1.1,0.5-2,0.6-2.6l3-10.5h4.7l2.9,10.5c0.2,0.6,0.4,1.5,0.7,2.7
			c0.3,1.2,0.4,2.2,0.5,2.8h0.1c0.2-1.5,0.6-3.6,1.3-6.2l2.6-9.8h4.3l-5.6,20H368.2z"/>
		<path fill="#C01818" d="M390.4,110.5c-3.1,0-5.5-0.9-7.3-2.7c-1.8-1.8-2.6-4.3-2.6-7.5c0-3.3,0.8-5.8,2.4-7.7
			c1.6-1.9,3.9-2.8,6.7-2.8c2.6,0,4.7,0.8,6.3,2.4c1.5,1.6,2.3,3.8,2.3,6.6v2.3h-13.3c0.1,1.9,0.6,3.4,1.6,4.5c1,1,2.4,1.6,4.2,1.6
			c1.2,0,2.3-0.1,3.3-0.3s2.1-0.6,3.3-1.1v3.5c-1,0.5-2.1,0.8-3.1,1C392.9,110.4,391.7,110.5,390.4,110.5z M389.6,93
			c-1.3,0-2.4,0.4-3.2,1.3c-0.8,0.9-1.3,2.1-1.5,3.7h9.1c0-1.7-0.4-2.9-1.2-3.7C392,93.4,390.9,93,389.6,93z"/>
		<path fill="#C01818" d="M413,89.8c0.9,0,1.6,0.1,2.1,0.2l-0.4,4c-0.6-0.1-1.2-0.2-1.9-0.2c-1.7,0-3.1,0.6-4.1,1.7
			c-1.1,1.1-1.6,2.5-1.6,4.3v10.4h-4.2v-20h3.3l0.6,3.5h0.2c0.7-1.2,1.5-2.1,2.6-2.8C410.6,90.1,411.7,89.8,413,89.8z"/>
		<path fill="#C01818" d="M415.1,107.9c0-0.9,0.2-1.6,0.7-2c0.5-0.5,1.1-0.7,2-0.7c0.9,0,1.5,0.2,2,0.7c0.5,0.5,0.7,1.2,0.7,2
			c0,0.9-0.2,1.5-0.7,2c-0.5,0.5-1.1,0.7-2,0.7s-1.5-0.2-2-0.7C415.3,109.4,415.1,108.7,415.1,107.9z"/>
	</g>
</g>
</svg>
